<?xml version="1.0" encoding="utf-8"?>
<!-- Generator: Adobe Illustrator 25.2.3, SVG Export Plug-In . SVG Version: 6.00 Build 0)  -->
<svg version="1.1" id="Layer_1" xmlns="http://www.w3.org/2000/svg" xmlns:xlink="http://www.w3.org/1999/xlink" x="0px" y="0px"
	 viewBox="0 0 1920 1209" style="enable-background:new 0 0 1920 1209;" xml:space="preserve">
<style type="text/css">
	.st0{fill:#FFFFFF;}
</style>
<polygon id="SVGID_1_" class="st0" points="2160.8,1348.6 1906.5,1242.2 1659.4,1353.6 1426.8,1242 1179.7,1353.5 947.1,1241.9 
	699.9,1353.4 467.4,1241.7 220.2,1353.2 -12.4,1241.6 -280.5,1347.8 -197.3,1173.7 -290.3,1050.1 -181.2,926.6 -274.2,803 
	-165,679.4 -258,555.8 -148.9,432.3 -241.9,308.7 -132.8,185.1 -193.4,11 60.9,117.4 308.1,5.9 540.6,117.5 787.8,6 1020.4,117.6 
	1267.5,6.2 1500.1,117.8 1747.2,6.3 1979.8,117.9 2248,11.7 2164.7,185.8 2257.7,309.4 2148.6,432.9 2241.6,556.6 2132.5,680.1 
	2225.5,803.7 2116.4,927.2 2209.4,1050.9 2100.1,1178.8 "/>
</svg>
