<?xml version="1.0" encoding="utf-8"?>
<!-- Generator: Adobe Illustrator 25.2.1, SVG Export Plug-In . SVG Version: 6.00 Build 0)  -->
<svg version="1.1" id="poly1" xmlns="http://www.w3.org/2000/svg" xmlns:xlink="http://www.w3.org/1999/xlink" x="0px" y="0px"
	 viewBox="0 0 8192 1209" style="enable-background:new 0 0 8192 1209;" xml:space="preserve">
<g>
	<clipPath id="poly1clip">
  <polygon points="8724.2,1083.3 8351.3,931 8008.5,1129.4 7643.2,976.1 7300.4,1174.4 6935.2,1021.2 6592.3,1219.5 6227.2,1066.2 
		5884.3,1264.6 5519.1,1111.3 5176.2,1309.6 4811.1,1156.4 4468.2,1354.7 4103,1201.5 3760.1,1399.8 3394.9,1246.5 3052.1,1444.9 
		2686.8,1291.6 2344,1489.9 1978.8,1336.7 1636,1535 1270.7,1381.7 927.9,1580.1 562.7,1426.8 219.8,1625.1 -137.7,1471.9 
		-212.2,1513.7 -77,1454.5 -218.7,1412.8 -83.4,1353.6 -225.1,1311.9 -89.8,1252.7 -231.5,1211 -96.3,1151.8 -237.9,1110.1 
		-102.7,1050.9 -244.4,1009.2 -109.1,950 -250.8,908.4 -115.5,849.2 -257.2,807.5 -122,748.3 -263.6,706.6 -128.4,647.4 -270,605.7 
		-134.8,546.5 -276.5,504.8 -141.2,445.5 -282.9,403.9 -147.6,344.6 -233.4,211.7 139.6,364 482.3,165.6 847.6,318.9 1190.4,120.6 
		1555.7,273.8 1898.5,75.5 2263.7,228.8 2606.6,30.4 2971.7,183.7 3314.6,-14.6 3679.8,138.6 4022.7,-59.7 4387.9,93.5 
		4730.7,-104.8 5095.9,48.5 5438.8,-149.9 5804,3.4 6146.8,-194.9 6512.1,-41.7 6854.9,-240 7220.1,-86.7 7563,-285.1 
		7928.2,-131.8 8271,-330.1 8628.5,-176.9 8703.1,-218.7 8567.9,-159.5 8709.6,-117.8 8574.3,-58.6 8716,-16.9 8580.7,42.2 
		8722.4,83.9 8587.1,143.1 8728.8,184.8 8593.6,244 8735.2,285.7 8600,344.9 8741.7,386.6 8606.4,445.8 8748.1,487.5 8612.8,546.7 
		8754.5,588.4 8619.3,647.6 8760.9,689.3 8625.7,748.5 8767.4,790.2 8632.1,849.5 8773.8,891.1 8638.9,954.9 	"/></clipPath>
</g>
</svg>
