<svg xmlns="http://www.w3.org/2000/svg" viewBox="0 0 268.73 89.88"><defs><style>.cls-1{fill:#231f20;}.cls-2,.cls-3{fill:none;stroke:#231f20;stroke-miterlimit:10;}.cls-2{stroke-width:2px;}.cls-3{stroke-width:1.5px;}</style></defs><g id="Layer_2" data-name="Layer 2"><g id="Layer_1-2" data-name="Layer 1"><path class="cls-1" d="M24.53,35.57,34.46,3.12H47.15v2.5L42.78,6.71V37l4.37,1.09v2.5H33.26v-2.5L37.06,37V6.76l-10.3,33.8H20.21L9.92,6.76V37l3.79,1.09v2.5H1.65v-2.5L6,37V6.71L1.65,5.62V3.12H14.54l9.78,32.45Z"/><path class="cls-1" d="M73.82,27H55.68a15.59,15.59,0,0,0,1,6.13,6.65,6.65,0,0,0,2.73,3.2,7.61,7.61,0,0,0,3.92,1,10.16,10.16,0,0,0,4.5-1,11.53,11.53,0,0,0,3.72-2.88l2,1.56A17.42,17.42,0,0,1,69,39.29a12.7,12.7,0,0,1-7,1.79,13,13,0,0,1-6.4-1.53,10.2,10.2,0,0,1-4.21-4.5,14,14,0,0,1-1.14-3.59,22.59,22.59,0,0,1-.37-4.21Q49.9,20,53.26,16a11.38,11.38,0,0,1,9.23-4q5.46,0,8.47,3.3t3,9.13c0,.34,0,.68,0,1S73.89,26.26,73.82,27ZM62.28,15q-6,0-6.55,9.15H68.21V22.57A8.76,8.76,0,0,0,66.65,17,5.28,5.28,0,0,0,62.28,15Z"/><path class="cls-1" d="M80.69,37.18V3.38l-4-1V0h9.57V37.18l4,1v2.39H76.68V38.17Z"/><path class="cls-1" d="M120.1,26.26a20.42,20.42,0,0,1-1,6.4,14.18,14.18,0,0,1-2.75,5q-2.91,3.38-8.37,3.38a9.18,9.18,0,0,1-4.73-1.22,10.29,10.29,0,0,1-3.7-4.55L98,40.56H95V3.38l-4-1V0h9.57V15.5a8.56,8.56,0,0,1,3.49-2.76A11.37,11.37,0,0,1,108.4,12a14.07,14.07,0,0,1,4.81.78,7.64,7.64,0,0,1,3.51,2.5,14.07,14.07,0,0,1,2.5,4.83A20.86,20.86,0,0,1,120.1,26.26Zm-19.5.1a25.09,25.09,0,0,0,.5,5.39,12.66,12.66,0,0,0,1.32,3.61,6.34,6.34,0,0,0,2,2,6.69,6.69,0,0,0,6,0,6,6,0,0,0,2-1.77,9.89,9.89,0,0,0,1.3-3.59,29.4,29.4,0,0,0,.41-5.2,28.9,28.9,0,0,0-.44-5.4,12.32,12.32,0,0,0-1.27-3.8,5.55,5.55,0,0,0-1.93-2,5.66,5.66,0,0,0-3-.71,7.19,7.19,0,0,0-3,.58,4.57,4.57,0,0,0-2.08,1.82,14.13,14.13,0,0,0-1.3,3.66A24.7,24.7,0,0,0,100.6,26.36Z"/><path class="cls-1" d="M149.85,26.36a20.24,20.24,0,0,1-1,6.35,13.5,13.5,0,0,1-2.81,5,9.27,9.27,0,0,1-4,2.57,16.37,16.37,0,0,1-5.36.81,16,16,0,0,1-5.28-.81,9.48,9.48,0,0,1-3.92-2.52A13.14,13.14,0,0,1,124.81,33a19.35,19.35,0,0,1-1-6.19,20.93,20.93,0,0,1,1-6.42,13.47,13.47,0,0,1,2.81-5,10.23,10.23,0,0,1,4-2.57A15.67,15.67,0,0,1,136.9,12a16.16,16.16,0,0,1,5.3.81,9.45,9.45,0,0,1,4,2.52,12.3,12.3,0,0,1,2.76,4.83A20.48,20.48,0,0,1,149.85,26.36Zm-19.35,3a13.51,13.51,0,0,0,.94,4.16,7.81,7.81,0,0,0,1.87,2.76,7,7,0,0,0,2.37,1.14,6,6,0,0,0,2.73,0q3-.88,4.16-4.63a19.82,19.82,0,0,0,.78-4.37,25.45,25.45,0,0,0-.16-4.83,13.79,13.79,0,0,0-.94-4.14,7.07,7.07,0,0,0-1.87-2.73A5.74,5.74,0,0,0,138,15.57a6.67,6.67,0,0,0-2.81,0q-3,.89-4,4.63A22.48,22.48,0,0,0,130.5,29.38Z"/><path class="cls-1" d="M161.75,12.48V26.94c0,2.21.07,3.89.19,5a9.28,9.28,0,0,0,.59,2.63,3.93,3.93,0,0,0,1.62,1.9,4.59,4.59,0,0,0,2.39.65,7,7,0,0,0,2.65-.52,8,8,0,0,0,2.24-1.41q2.13-1.92,2.34-6V15.86l-4.53-1V12.48h10.09v24.7l4,1v2.39l-8.58.52-.57-5.72H174a11.22,11.22,0,0,1-4.1,4.19,10.82,10.82,0,0,1-5.57,1.53,8.54,8.54,0,0,1-3.61-.75,6.49,6.49,0,0,1-2.58-2.06,10.77,10.77,0,0,1-1.45-4.11,42.52,42.52,0,0,1-.47-7.07V15.86l-3.48-1V12.48Z"/><path class="cls-1" d="M201.17,15.76a1.06,1.06,0,0,0-.34-.16,1.6,1.6,0,0,0-.39,0,2.16,2.16,0,0,0-1.3.62,8.91,8.91,0,0,0-1.38,1.56,11.67,11.67,0,0,0-1.11,2,20.79,20.79,0,0,0-1.15,3.8,21.78,21.78,0,0,0-.41,4.42v9.2l5.61,1v2.39H185.52V38.17l4-1V15.6l-4-1V12.48h8l1.14,6.86h.21a13.35,13.35,0,0,1,3.22-5.46A6.36,6.36,0,0,1,202.57,12,4.72,4.72,0,0,1,206,13.23a4.44,4.44,0,0,1,1.36,3.41,4,4,0,0,1-.86,2.6,2.86,2.86,0,0,1-2.32,1,3,3,0,0,1-2.41-.91,3.21,3.21,0,0,1-.81-2.21,4.91,4.91,0,0,1,0-.57A3.32,3.32,0,0,1,201.17,15.76Z"/><path class="cls-1" d="M212.82,37.18V15.86l-4-1V12.48h8l1.15,5.2h.2a11.54,11.54,0,0,1,4.22-4.19A11.11,11.11,0,0,1,228.05,12q4.32,0,6.4,2.81a9.8,9.8,0,0,1,1.48,4.08,44.26,44.26,0,0,1,.44,7.1V37.18l4,1v2.39h-13V38.17l3.48-1V26.1c0-2.18-.06-3.84-.18-5a8.53,8.53,0,0,0-.65-2.68,3.81,3.81,0,0,0-1.69-1.9,5.49,5.49,0,0,0-2.63-.6,7.29,7.29,0,0,0-4.94,1.82q-2.13,2-2.34,6V37.18l3.49,1v2.39H208.81V38.17Z"/><path class="cls-1" d="M266.85,27H248.7a15.59,15.59,0,0,0,1,6.13,6.76,6.76,0,0,0,2.73,3.2,7.61,7.61,0,0,0,3.92,1,10.16,10.16,0,0,0,4.5-1,11.42,11.42,0,0,0,3.72-2.88l2,1.56a17.42,17.42,0,0,1-4.58,4.29,12.7,12.7,0,0,1-7,1.79,12.91,12.91,0,0,1-6.39-1.53,10.17,10.17,0,0,1-4.22-4.5,14,14,0,0,1-1.14-3.59,23.5,23.5,0,0,1-.36-4.21q0-7.29,3.35-11.29a11.39,11.39,0,0,1,9.23-4q5.46,0,8.48,3.3t3,9.13c0,.34,0,.68,0,1S266.91,26.26,266.85,27ZM255.3,15q-6,0-6.55,9.15h12.48V22.57A8.76,8.76,0,0,0,259.67,17,5.28,5.28,0,0,0,255.3,15Z"/><path class="cls-1" d="M5.46,89.52,1.88,76.18l0-.07q0-.18.21-.18H4a.25.25,0,0,1,.27.2l2.25,9s0,.06.06.06,0,0,.06-.06l2.14-9a.25.25,0,0,1,.26-.2h1.89a.26.26,0,0,1,.28.2l2.28,9s0,.06.06.06,0,0,.06-.06l2.21-9a.25.25,0,0,1,.27-.2h1.84c.18,0,.25.08.21.25L14.74,89.52a.25.25,0,0,1-.27.2H12.64a.26.26,0,0,1-.28-.2l-2.31-9.4s0-.06-.06-.06,0,0-.05.06l-2.21,9.4a.25.25,0,0,1-.26.2H5.74A.26.26,0,0,1,5.46,89.52Z"/><path class="cls-1" d="M27.86,89.65a.21.21,0,0,1-.07-.17V76.17a.21.21,0,0,1,.07-.17.2.2,0,0,1,.16-.07h1.82A.2.2,0,0,1,30,76a.21.21,0,0,1,.07.17V89.48a.21.21,0,0,1-.07.17.2.2,0,0,1-.16.07H28A.2.2,0,0,1,27.86,89.65Z"/><path class="cls-1" d="M48.72,76a.22.22,0,0,1,.17-.07H50.7a.22.22,0,0,1,.17.07.24.24,0,0,1,.07.17V89.48a.24.24,0,0,1-.07.17.22.22,0,0,1-.17.07H49a.28.28,0,0,1-.28-.16L43,80.26a.1.1,0,0,0-.08-.05s0,0,0,.09l0,9.18a.21.21,0,0,1-.07.17.22.22,0,0,1-.17.07H40.87a.22.22,0,0,1-.17-.07.21.21,0,0,1-.07-.17V76.17A.21.21,0,0,1,40.7,76a.22.22,0,0,1,.17-.07h1.75a.28.28,0,0,1,.28.16l5.65,9.3a.1.1,0,0,0,.08,0s0,0,0-.09l0-9.18A.21.21,0,0,1,48.72,76Z"/><path class="cls-1" d="M70.73,76a.24.24,0,0,1,.07.17v1.51a.26.26,0,0,1-.07.17.22.22,0,0,1-.17.07H66.94c-.07,0-.1,0-.1.1V89.48a.24.24,0,0,1-.07.17.22.22,0,0,1-.17.07H64.79a.22.22,0,0,1-.17-.07.21.21,0,0,1-.07-.17V78c0-.07,0-.1-.1-.1H61a.21.21,0,0,1-.17-.07.22.22,0,0,1-.07-.17V76.17a.24.24,0,0,1,.24-.24h9.59A.22.22,0,0,1,70.73,76Z"/><path class="cls-1" d="M89.86,77.83a.22.22,0,0,1-.17.07H83c-.06,0-.09,0-.09.1v3.68c0,.07,0,.1.09.1h4.52a.2.2,0,0,1,.16.07.22.22,0,0,1,.07.17v1.49a.21.21,0,0,1-.07.17.2.2,0,0,1-.16.07H83c-.06,0-.09,0-.09.1v3.8c0,.07,0,.1.09.1h6.72a.24.24,0,0,1,.24.24v1.49a.21.21,0,0,1-.07.17.22.22,0,0,1-.17.07H80.83a.24.24,0,0,1-.24-.24V76.17a.24.24,0,0,1,.24-.24h8.86a.22.22,0,0,1,.17.07.21.21,0,0,1,.07.17v1.49A.22.22,0,0,1,89.86,77.83Z"/><path class="cls-1" d="M107.41,89.54l-2.61-5.67a.12.12,0,0,0-.11-.08h-2.37a.09.09,0,0,0-.1.1v5.59a.21.21,0,0,1-.07.17.2.2,0,0,1-.16.07h-1.82a.2.2,0,0,1-.16-.07.21.21,0,0,1-.07-.17V76.17A.21.21,0,0,1,100,76a.2.2,0,0,1,.16-.07h5.42a4.47,4.47,0,0,1,2.13.5,3.58,3.58,0,0,1,1.44,1.42,4.24,4.24,0,0,1,.51,2.1,3.77,3.77,0,0,1-.7,2.31A3.57,3.57,0,0,1,107,83.59a.07.07,0,0,0-.06,0,.11.11,0,0,0,0,.08l2.78,5.74a.24.24,0,0,1,0,.11c0,.11-.07.16-.22.16h-1.89A.27.27,0,0,1,107.41,89.54ZM102.22,78v3.92a.09.09,0,0,0,.1.1h3a2.09,2.09,0,0,0,1.52-.56,2.19,2.19,0,0,0,0-3,2.06,2.06,0,0,0-1.52-.57h-3A.09.09,0,0,0,102.22,78Z"/><path class="cls-1" d="M140.57,77.83a.2.2,0,0,1-.16.07h-6.7c-.07,0-.1,0-.1.1v3.68c0,.07,0,.1.1.1h4.51a.22.22,0,0,1,.17.07.26.26,0,0,1,.07.17v1.49a.24.24,0,0,1-.07.17.22.22,0,0,1-.17.07h-4.51c-.07,0-.1,0-.1.1v5.63a.21.21,0,0,1-.07.17.22.22,0,0,1-.17.07h-1.81a.22.22,0,0,1-.17-.07.24.24,0,0,1-.07-.17V76.17a.24.24,0,0,1,.07-.17.22.22,0,0,1,.17-.07h8.85a.2.2,0,0,1,.16.07.21.21,0,0,1,.07.17v1.49A.22.22,0,0,1,140.57,77.83Z"/><path class="cls-1" d="M159.37,77.83a.22.22,0,0,1-.17.07h-6.72c-.06,0-.09,0-.09.1v3.68c0,.07,0,.1.09.1H157a.2.2,0,0,1,.16.07.22.22,0,0,1,.07.17v1.49a.21.21,0,0,1-.07.17.2.2,0,0,1-.16.07h-4.52c-.06,0-.09,0-.09.1v3.8c0,.07,0,.1.09.1h6.72a.24.24,0,0,1,.24.24v1.49a.21.21,0,0,1-.07.17.22.22,0,0,1-.17.07h-8.86a.22.22,0,0,1-.17-.07.21.21,0,0,1-.07-.17V76.17a.21.21,0,0,1,.07-.17.22.22,0,0,1,.17-.07h8.86a.22.22,0,0,1,.17.07.21.21,0,0,1,.07.17v1.49A.22.22,0,0,1,159.37,77.83Z"/><path class="cls-1" d="M171.22,89.39A4,4,0,0,1,169.46,88a3.58,3.58,0,0,1-.62-2.09v-.49a.21.21,0,0,1,.07-.17.2.2,0,0,1,.16-.07h1.76a.23.23,0,0,1,.17.07.24.24,0,0,1,.07.17v.37a1.81,1.81,0,0,0,.8,1.51,3.65,3.65,0,0,0,2.21.6,2.77,2.77,0,0,0,1.81-.51,1.66,1.66,0,0,0,.61-1.32,1.4,1.4,0,0,0-.33-.94,3.1,3.1,0,0,0-1-.7c-.41-.21-1-.47-1.86-.79a20.16,20.16,0,0,1-2.27-1,4.39,4.39,0,0,1-1.44-1.23,3.16,3.16,0,0,1-.58-1.95,3.31,3.31,0,0,1,1.26-2.73,5.25,5.25,0,0,1,3.37-1,6.33,6.33,0,0,1,2.61.51,4.18,4.18,0,0,1,1.76,1.43,3.65,3.65,0,0,1,.63,2.12v.34a.2.2,0,0,1-.07.16.22.22,0,0,1-.17.07h-1.77a.22.22,0,0,1-.17-.07.24.24,0,0,1-.07-.16V80a2,2,0,0,0-.75-1.57,3.21,3.21,0,0,0-2.1-.64,2.76,2.76,0,0,0-1.69.45,1.53,1.53,0,0,0-.6,1.29,1.44,1.44,0,0,0,.32,1,2.75,2.75,0,0,0,.94.68q.63.3,1.95.78a22.9,22.9,0,0,1,2.24,1,4.31,4.31,0,0,1,1.44,1.22,3.05,3.05,0,0,1,.6,1.94,3.4,3.4,0,0,1-1.31,2.81,5.57,5.57,0,0,1-3.58,1A6.89,6.89,0,0,1,171.22,89.39Z"/><path class="cls-1" d="M197.75,76a.21.21,0,0,1,.07.17v1.51a.22.22,0,0,1-.07.17.21.21,0,0,1-.17.07H194c-.07,0-.1,0-.1.1V89.48a.24.24,0,0,1-.24.24h-1.81a.22.22,0,0,1-.23-.24V78a.09.09,0,0,0-.1-.1H188a.22.22,0,0,1-.17-.07.26.26,0,0,1-.07-.17V76.17a.24.24,0,0,1,.07-.17.22.22,0,0,1,.17-.07h9.59A.21.21,0,0,1,197.75,76Z"/><path class="cls-1" d="M207.68,89.65a.24.24,0,0,1-.07-.17V76.17a.24.24,0,0,1,.07-.17.22.22,0,0,1,.17-.07h1.81a.22.22,0,0,1,.17.07.21.21,0,0,1,.07.17V89.48a.21.21,0,0,1-.07.17.22.22,0,0,1-.17.07h-1.81A.22.22,0,0,1,207.68,89.65Z"/><path class="cls-1" d="M223.77,89.52,219.63,76.2l0-.07c0-.14.07-.2.22-.2h1.95a.26.26,0,0,1,.28.2L225,86.41s0,.06.06.06.05,0,.06-.06l2.94-10.28a.24.24,0,0,1,.27-.2h1.91a.22.22,0,0,1,.18.08.18.18,0,0,1,0,.19l-4.2,13.32a.24.24,0,0,1-.25.2h-2A.24.24,0,0,1,223.77,89.52Z"/><path class="cls-1" d="M246.53,89.52l-.65-2.1c0-.06-.06-.08-.1-.08h-5.2a.1.1,0,0,0-.1.08l-.65,2.1a.25.25,0,0,1-.26.2h-2a.21.21,0,0,1-.18-.07s0-.11,0-.2l4.28-13.32a.24.24,0,0,1,.26-.2h2.46a.23.23,0,0,1,.25.2L249,89.45a.2.2,0,0,1,0,.09c0,.12-.07.18-.22.18h-2A.24.24,0,0,1,246.53,89.52Zm-5.36-4h4c.08,0,.1,0,.08-.11l-2-6.6c0-.06,0-.08-.06-.08s0,0-.06.08l-2,6.6C241.08,85.5,241.1,85.54,241.17,85.54Z"/><path class="cls-1" d="M258.75,89.65a.24.24,0,0,1-.07-.17V76.17a.24.24,0,0,1,.07-.17.22.22,0,0,1,.17-.07h1.81a.22.22,0,0,1,.17.07.21.21,0,0,1,.07.17V87.65c0,.07,0,.1.1.1h6.6a.23.23,0,0,1,.17.07.25.25,0,0,1,.06.17v1.49a.22.22,0,0,1-.23.24h-8.75A.22.22,0,0,1,258.75,89.65Z"/><line class="cls-2" x1="151.38" y1="57.24" x2="268.73" y2="57.24"/><line class="cls-2" y1="57.24" x2="117.39" y2="57.24"/><line class="cls-3" x1="134.2" y1="47.91" x2="134.2" y2="66.56"/><line class="cls-3" x1="134.2" y1="53.6" x2="130.22" y2="48.97"/><line class="cls-3" x1="134.2" y1="53.6" x2="138.18" y2="48.97"/><line class="cls-3" x1="134.2" y1="60.97" x2="138.18" y2="65.6"/><line class="cls-3" x1="134.2" y1="60.97" x2="130.22" y2="65.6"/><line class="cls-3" x1="143.52" y1="57.24" x2="124.87" y2="57.24"/><line class="cls-3" x1="137.84" y1="57.24" x2="142.46" y2="53.26"/><line class="cls-3" x1="137.84" y1="57.24" x2="142.46" y2="61.22"/><line class="cls-3" x1="130.46" y1="57.24" x2="125.84" y2="61.22"/><line class="cls-3" x1="130.46" y1="57.24" x2="125.84" y2="53.26"/></g></g></svg>