<?xml version="1.0" encoding="utf-8"?>
<!-- Generator: Adobe Illustrator 24.2.0, SVG Export Plug-In . SVG Version: 6.00 Build 0)  -->
<svg version="1.1" id="Layer_1" xmlns="http://www.w3.org/2000/svg" xmlns:xlink="http://www.w3.org/1999/xlink" x="0px" y="0px"
	 viewBox="0 0 1080 1080" style="enable-background:new 0 0 1080 1080;" xml:space="preserve">
<style type="text/css">
	.st0{display:none;}
	.st1{display:inline;fill:#603813;}
	.st2{fill:none;stroke:#000000;stroke-width:45;stroke-miterlimit:10;}
</style>
<g id="Layer_1_1_" class="st0">
</g>
<g id="Layer_5" class="st0">
	<polygon class="st1" points="303.5,390.5 318.5,458.5 390.5,464.5 534.2,510.7 648.1,474.7 763.5,464.5 769.5,401.5 684.5,390.5 
		590.3,379.5 486.5,397.5 398.5,390.5 339.5,379.5 	"/>
	<polyline class="st1" points="341.4,749.8 424.2,710.4 531.7,660.9 599.6,681.5 694,725 736.5,742.7 709,989 368,995 337,761 
		341.4,749.8 	"/>
</g>
<g id="Layer_3">
	<path class="st2" d="M538.9,658.8c1.2,0,2.5,0.2,3.7,0.5c87.1,24.9,143.3,85.9,206.8,74.2c54.7-10,93.6-82.9,97.1-97.1
		c16.7-69.2,11.7-126.2,6.7-141.7c-31.2-25.7-86.6-33.2-154-29c-69.2,4.3-121.7,40.8-158.4,45.7l0,0c-1.2,0-2.4-0.1-3.6-0.3
		c-33.5-5.5-85.4-41.1-156.6-45.5c-67.4-4.1-122.7,3.3-154,29c-5,15.5-10,72.5,6.7,141.7c3.4,14.1,42.4,87,97.1,97.1
		C394.2,745.3,450.8,683.3,538.9,658.8L538.9,658.8z"/>
	<path class="st2" d="M303.5,594.4c16.4-31.3,48.7-51.2,83.7-51.3c52.3-0.3,80,43.4,81.4,45.7c-1.1,2.1-26.2,48.6-79.2,51.3
		C339.4,642.8,305.6,597.3,303.5,594.4z"/>
	<path class="st2" d="M776.6,594.4c-16.4-31.3-48.7-51.2-83.7-51.3c-52.3-0.3-80,43.4-81.4,45.7c1.1,2.1,26.2,48.6,79.2,51.3
		C740.7,642.8,774.5,597.3,776.6,594.4z"/>
</g>
<g id="Layer_2_1_">
	<polyline class="st2" points="737.5,734.5 705.7,995 371.2,995 339.5,734.5 	"/>
	<polyline class="st2" points="305.5,464.5 285.8,294.5 791,294.5 770.5,464.5 	"/>
	<path class="st2" d="M550.5,509.5l47.6-335.8c2.9-20.2,17.2-36.8,36.8-42.6L791,85"/>
	<line class="st2" x1="490.8" y1="925.6" x2="528.5" y2="661.5"/>
</g>
<g id="Layer_4">
	<path class="st2" d="M779,390.1c-6.2,2.6-27.9,10.9-60.1,10.9c-31.9,0-53.6-8.2-60-10.9c-0.1,0-0.2-0.1-0.3-0.1l0,0
		c-0.1,0-0.2-0.1-0.3-0.1c-6.4-2.6-28.1-10.9-60-10.9c-32.2,0-54,8.4-60.1,10.9l-0.5,0.1c-6.2,2.6-27.9,10.9-60.1,10.9
		c-31.9,0-53.6-8.2-60-10.9c-0.1,0-0.2-0.1-0.3-0.1l0,0c-0.1,0-0.2-0.1-0.3-0.1c-6.4-2.6-28.1-10.9-60-10.9
		c-32.2,0-54,8.4-60.1,10.9"/>
</g>
</svg>
