<?xml version="1.0" encoding="utf-8"?>
<!-- Generator: Adobe Illustrator 25.0.1, SVG Export Plug-In . SVG Version: 6.00 Build 0)  -->
<svg version="1.1" id="Layer_1" xmlns="http://www.w3.org/2000/svg" xmlns:xlink="http://www.w3.org/1999/xlink" x="0px" y="0px"
	 viewBox="0 0 2238 1395" style="enable-background:new 0 0 2238 1395;" xml:space="preserve">
<style type="text/css">
	.st0{fill:url(#SVGID_1_);}
</style>
<linearGradient id="SVGID_1_" gradientUnits="userSpaceOnUse" x1="1262.0707" y1="461.7628" x2="1262.0707" y2="-278.5895" gradientTransform="matrix(0.7071 0.7071 -0.7071 0.7071 886.5969 -433.4344)">
	<stop  offset="0" style="stop-color:#4D2DFF"/>
	<stop  offset="1" style="stop-color:#FF00FF"/>
</linearGradient>
<path class="st0" d="M1714.3,0.2l-523.5,523.5l523.5,523.5l523.5-523.5L1714.3,0.2z M1971.4,768.7V536.2l128.7-128.7l116.3,116.3
	L1971.4,768.7z M1971.4,278.8l118,118l-118,118V278.8z M1944.2,281.7l-100.6,100.6c-75.3-70-193.4-68.4-266.6,4.9
	c-34.5,34.5-54.3,79.8-56.1,128.3l-48.6,0V281.7H1944.2z M1710.4,515.5l-174.4,0c1.9-44.4,20-85.9,51.7-117.6
	c67.3-67.3,175.9-69,245.2-4.9L1710.4,515.5z M1695.3,530.6l-223.1,223.1V530.6L1695.3,530.6z M1843.6,403.7
	c63.4,69.4,61.5,177.4-5.6,244.5c-67.1,67.1-175.1,69-244.5,5.6L1843.6,403.7z M1719,266.6l2.6-237.5l237.5,237.5H1719z
	 M1703.9,266.6h-234.6l237.2-237.2L1703.9,266.6z M1325.8,530.6v106.8L1219,530.6H1325.8z M1220.4,515.5l105.4-105.4v105.4H1220.4z
	 M1341,394.9l116.1-116.1v489.8L1341,652.6V394.9z M1481.5,765.8l101.3-101.3c75.3,69.3,192.9,67.4,265.9-5.6s74.9-190.6,5.6-265.9
	l102-102v474.9H1481.5z M1705.9,780.9l-118.6,118l-118-118L1705.9,780.9z M1598,909.6l129.3-128.7h231.8l-244.9,244.9L1598,909.6z"
	/>
</svg>
