<?xml version="1.0" encoding="utf-8"?>
<!-- Generator: Adobe Illustrator 25.4.1, SVG Export Plug-In . SVG Version: 6.00 Build 0)  -->
<svg version="1.1" xmlns="http://www.w3.org/2000/svg" xmlns:xlink="http://www.w3.org/1999/xlink" x="0px" y="0px"
	 viewBox="0 0 1920 579" style="enable-background:new 0 0 1920 579;" xml:space="preserve">
<style type="text/css">
	.st0{fill:none;stroke:#E00FFF;stroke-width:8;stroke-miterlimit:10;}
	.st1{fill:none;stroke:#FFFF00;stroke-width:8;stroke-miterlimit:10;}
	.st2{stroke:#00D4FF;stroke-width:8;stroke-miterlimit:10;}
	.st3{fill:none;stroke:#FFFFFF;stroke-width:8;stroke-miterlimit:10;}
</style>
<g id="Layer_1">
	<g>
		<rect x="0.5" y="0.5" width="1919" height="578"/>
		<path d="M1919,1v577H1V1H1919 M1920,0H0v579h1920V0L1920,0z"/>
	</g>
</g>
<g id="Layer_2">
	<path class="st0" d="M643-6C487.3,105.9,314.6,21.6,244.3,133.9c-49,78.2,17.1,146-37.4,264c-37.4,80.9-125.1,159-211.6,163.4"/>
	<path class="st1" d="M556.3-8.6C415.6,80,270.4,26.4,206.9,115.3c-44.2,61.9,15.5,115.6-33.8,209c-33.8,64-113.7,125.9-191.8,129.4
		"/>
	<path class="st2" d="M261.9-3.7C197,77.5,117.8,25.2,88.5,106.6c-20.4,56.7,7.1,105.9-15.6,191.5c-15.6,58.7-55.6,115.3-91.7,118.5
		"/>
	<path class="st3" d="M133.2-18.5C94.6,16,65.7,17.9,47.4,51.9c-17.8,33.1-1.8,43.3-9.3,81.3c-11.5,58.4-67,65.9-88.4,67.2"/>
	<path class="st0" d="M1279.7,590.8c155.7-111.9,328.4-27.6,398.7-139.9c49-78.2-17.1-146,37.4-264c37.4-80.9,125.1-159,211.6-163.4
		"/>
	<path class="st1" d="M1366.4,593.4c140.6-88.6,285.8-35,349.3-123.9c44.2-61.9-15.5-115.6,33.8-209
		c33.8-64,113.7-125.9,191.8-129.4"/>
	<path class="st2" d="M1660.8,588.5c64.9-81.1,144.1-28.9,173.4-110.3c20.4-56.7-7.1-105.9,15.6-191.5
		c15.6-58.7,55.6-115.3,91.7-118.5"/>
	<path class="st3" d="M1789.6,603.3c38.5-34.4,67.4-36.3,85.7-70.4c17.8-33.1,1.8-43.3,9.3-81.3c11.5-58.4,67-65.9,88.4-67.2"/>
</g>
</svg>
