<svg xmlns="http://www.w3.org/2000/svg" viewBox="0 0 271.3 72.42"><defs><style>.cls-1{fill:#231f20;}.cls-2{fill:none;stroke:#231f20;stroke-miterlimit:10;stroke-width:1.25px;}</style></defs><g id="Layer_2" data-name="Layer 2"><g id="Layer_1-2" data-name="Layer 1"><path class="cls-1" d="M0,.35H5.28l9.47,9.5L24.21.35H29.5V26.4H24.21V7.67l-9.46,9.11L5.28,7.67V26.4H0Z"/><path class="cls-1" d="M36.4.35H58.58V5H41.69v5.2h15v4.35h-15v7.25H58.93V26.4H36.4Z"/><path class="cls-1" d="M64.29.35h5.28V21.77H84.72V26.4H64.29Z"/><path class="cls-1" d="M89.33.35h13.91a16.25,16.25,0,0,1,4.44.54,9.45,9.45,0,0,1,3.14,1.49,6,6,0,0,1,1.86,2.26,6.57,6.57,0,0,1,.61,2.83,6.56,6.56,0,0,1-1.57,4.35,6.92,6.92,0,0,1,2.69,2.76,8.26,8.26,0,0,1,.88,3.87,8.41,8.41,0,0,1-.61,3.28,6.35,6.35,0,0,1-1.85,2.51,8.64,8.64,0,0,1-3.13,1.6,15.92,15.92,0,0,1-4.46.56H89.33Zm15.94,10c.46,0,.9,0,1.34.05A3.28,3.28,0,0,0,107.72,8a2.54,2.54,0,0,0-1.1-2.2A5.71,5.71,0,0,0,103.37,5H94.61v5.35Zm.1,11.45a5,5,0,0,0,3.25-.92,3.18,3.18,0,0,0,1.1-2.58,3.23,3.23,0,0,0-1.1-2.6,4.94,4.94,0,0,0-3.25-.93H94.61v7Z"/><path class="cls-1" d="M118.59,13.3a13.22,13.22,0,0,1,1.09-5.4,12.16,12.16,0,0,1,3-4.21A13.7,13.7,0,0,1,127.42,1a19.48,19.48,0,0,1,12.14,0,13.84,13.84,0,0,1,4.71,2.72,12.29,12.29,0,0,1,3,4.21,13.22,13.22,0,0,1,1.08,5.4,13.44,13.44,0,0,1-1.08,5.44,12.49,12.49,0,0,1-3,4.26,13.94,13.94,0,0,1-4.71,2.77,19.1,19.1,0,0,1-12.14,0,13.8,13.8,0,0,1-4.7-2.77,12.35,12.35,0,0,1-3-4.26A13.45,13.45,0,0,1,118.59,13.3Zm5.29,0a8.84,8.84,0,0,0,.72,3.63,8.09,8.09,0,0,0,2,2.76,9.11,9.11,0,0,0,3,1.76,12.11,12.11,0,0,0,7.65,0,9.06,9.06,0,0,0,3-1.76,8.22,8.22,0,0,0,2-2.76,8.69,8.69,0,0,0,.73-3.63,8.61,8.61,0,0,0-.73-3.62,8,8,0,0,0-2-2.71,9.08,9.08,0,0,0-3-1.69,12.9,12.9,0,0,0-7.65,0,9.13,9.13,0,0,0-3,1.69,7.9,7.9,0,0,0-2,2.71A8.76,8.76,0,0,0,123.88,13.3Z"/><path class="cls-1" d="M152.76.35h5.29V14.7a9.5,9.5,0,0,0,.48,3.14A6,6,0,0,0,160,20.17a6.26,6.26,0,0,0,2.38,1.44,11.32,11.32,0,0,0,6.59,0,6.26,6.26,0,0,0,2.38-1.44,6,6,0,0,0,1.44-2.33,9.49,9.49,0,0,0,.49-3.14V.35h5.28v15a12.1,12.1,0,0,1-.87,4.67,9.92,9.92,0,0,1-2.51,3.6,11.47,11.47,0,0,1-4.05,2.32,18.77,18.77,0,0,1-10.91,0,11.43,11.43,0,0,1-4-2.32,9.94,9.94,0,0,1-2.52-3.6,12.1,12.1,0,0,1-.87-4.67Z"/><path class="cls-1" d="M184.45.35H197.7a19.45,19.45,0,0,1,5.2.62,10.07,10.07,0,0,1,3.65,1.81,7.32,7.32,0,0,1,2.16,2.89,9.93,9.93,0,0,1,.71,3.85,10.74,10.74,0,0,1-.35,2.75A8.34,8.34,0,0,1,208,14.68a8,8,0,0,1-1.82,2,10.2,10.2,0,0,1-2.59,1.43l5.67,8.33h-6.47l-4.9-7.4h-.15l-8,0V26.4h-5.28Zm13.38,14.07a9,9,0,0,0,2.63-.35,5.59,5.59,0,0,0,1.88-1,3.84,3.84,0,0,0,1.13-1.54,5.23,5.23,0,0,0,.38-2,4.07,4.07,0,0,0-1.5-3.38A7.22,7.22,0,0,0,197.83,5h-8.1v9.47Z"/><path class="cls-1" d="M215.12.35h5.28l16.23,8.5V.35h5.29V26.4h-5.29V14.45L220.4,6V26.4h-5.28Z"/><path class="cls-1" d="M248.77.35H271V5H254.06v5.2h15v4.35h-15v7.25H271.3V26.4H248.77Z"/><path class="cls-1" d="M6.44,72.12,2.33,57.94H4.16L7.31,69.16,10.46,58H12.3l3.15,11.22,3.14-11.22h1.85L16.33,72.12H14.57L11.38,61,8.19,72.12Z"/><path class="cls-1" d="M30,72.12V57.94h1.76V72.12Z"/><path class="cls-1" d="M42.38,72.12V57.94h1.78L51.56,69V57.94h1.77V72.12H51.56L44.16,61V72.12Z"/><path class="cls-1" d="M67.43,72.12V59.6H62.59V57.94H74V59.6H69.18V72.12Z"/><path class="cls-1" d="M83.28,72.12V57.94h9V59.6H85V64h6v1.67H85v4.75h7.21v1.66Z"/><path class="cls-1" d="M102.29,72.12V57.94h6.1a3.31,3.31,0,0,1,.55.07,4.12,4.12,0,0,1,1.94.78,3.76,3.76,0,0,1,1.17,1.55,5.08,5.08,0,0,1,.4,2.06,4.79,4.79,0,0,1-.86,2.85,3.74,3.74,0,0,1-2.51,1.51l-.67.11H104v5.24Zm1.75-6.9h3.8l.43,0,.45-.07a2.27,2.27,0,0,0,1.11-.58,2.5,2.5,0,0,0,.63-1,3.46,3.46,0,0,0,0-2.32,2.47,2.47,0,0,0-.63-1,2.18,2.18,0,0,0-1.11-.57,2.12,2.12,0,0,0-.45-.07l-.43,0H104Zm6.69,6.9-2.79-5.77,1.73-.53,3.07,6.3Z"/><path class="cls-1" d="M134.22,72.12V57.94h8.27v1.75H136v4.46h5.34v1.76H136v6.21Z"/><path class="cls-1" d="M152,72.12V57.94h9V59.6h-7.21V64h6v1.67h-6v4.75h7.21v1.66Z"/><path class="cls-1" d="M175.6,72.42a6.93,6.93,0,0,1-2.71-.51,5.18,5.18,0,0,1-2-1.47,4.84,4.84,0,0,1-1-2.25l1.81-.28A3.51,3.51,0,0,0,173.13,70a4.39,4.39,0,0,0,2.56.75,4.72,4.72,0,0,0,1.73-.3,2.79,2.79,0,0,0,1.23-.86,2.06,2.06,0,0,0,.45-1.33,1.73,1.73,0,0,0-.6-1.39,2.8,2.8,0,0,0-.64-.41,4.7,4.7,0,0,0-.74-.28l-3.61-1.07a7.62,7.62,0,0,1-1.15-.45,4.19,4.19,0,0,1-1-.68,3,3,0,0,1-.69-1,3.38,3.38,0,0,1-.26-1.37,3.5,3.5,0,0,1,.66-2.15,4.11,4.11,0,0,1,1.78-1.37,6.38,6.38,0,0,1,2.53-.46,6.44,6.44,0,0,1,2.55.51,4.84,4.84,0,0,1,1.88,1.42,5.13,5.13,0,0,1,1,2.22l-1.87.32a3.1,3.1,0,0,0-.65-1.49,3.27,3.27,0,0,0-1.27-1,4.38,4.38,0,0,0-3.23-.08,2.8,2.8,0,0,0-1.11.79,1.78,1.78,0,0,0-.41,1.17,1.45,1.45,0,0,0,.37,1.05,2.6,2.6,0,0,0,.92.63,8.63,8.63,0,0,0,1.07.38l2.7.78c.31.08.66.2,1.07.35a5.61,5.61,0,0,1,1.17.64,3.12,3.12,0,0,1,.95,1.08,3.48,3.48,0,0,1,.38,1.7,4,4,0,0,1-.41,1.83,4,4,0,0,1-1.14,1.33,5.37,5.37,0,0,1-1.7.82A7.24,7.24,0,0,1,175.6,72.42Z"/><path class="cls-1" d="M194.32,72.12V59.6h-4.83V57.94h11.42V59.6h-4.83V72.12Z"/><path class="cls-1" d="M210.37,72.12V57.94h1.75V72.12Z"/><path class="cls-1" d="M226.23,72.12l-4.75-14.18h1.82l4.13,12.32,4.17-12.32h1.82l-4.75,14.18Z"/><path class="cls-1" d="M240.22,72.12,245,57.94h2.44l4.75,14.18h-1.82L245.89,59h.56L242,72.12Zm2.29-3.32V67.16h7.37V68.8Z"/><path class="cls-1" d="M261.81,72.12V57.94h1.76V70.46h6.58v1.66Z"/><line class="cls-2" x1="152.19" y1="41.64" x2="269.55" y2="41.64"/><line class="cls-2" x1="0.82" y1="41.64" x2="118.21" y2="41.64"/><line class="cls-2" x1="135.01" y1="32.31" x2="135.01" y2="50.97"/><line class="cls-2" x1="135.01" y1="38" x2="131.03" y2="33.37"/><line class="cls-2" x1="135.01" y1="38" x2="138.99" y2="33.37"/><line class="cls-2" x1="135.01" y1="45.37" x2="138.99" y2="50"/><line class="cls-2" x1="135.01" y1="45.37" x2="131.03" y2="50"/><line class="cls-2" x1="144.34" y1="41.64" x2="125.69" y2="41.64"/><line class="cls-2" x1="138.65" y1="41.64" x2="143.28" y2="37.66"/><line class="cls-2" x1="138.65" y1="41.64" x2="143.28" y2="45.62"/><line class="cls-2" x1="131.28" y1="41.64" x2="126.65" y2="45.62"/><line class="cls-2" x1="131.28" y1="41.64" x2="126.65" y2="37.66"/></g></g></svg>